#!OML:ASF E:\emotionWalksFemale\Project 1\Capture day 1\Session 1\Female1.ASF
:FULLY-SPECIFIED
:DEGREES
3208
root 8.96611 15.5741 -17.872 358.422 -8.79422 -2.20802
lowerback 6.08026 1.88076 -7.10997
upperback -3.10136 1.55203 -4.96806
thorax -6.75265 0.945919 -1.42609
lowerneck -5.56745 1.65664 -1.85835
upperneck 39.671 3.17495 -0.586394
head 14.6223 0.927148 0.490009
rclavicle -3.67752e-014 6.67916e-014
rhumerus -44.1437 -20.1318 -49.2027
rradius 38.1219
rwrist 13.7546
rhand 2.34927 -46.9723
rfingers 7.12502
rthumb 27.8386 -434.93
lclavicle -3.67752e-014 6.67916e-014
lhumerus -38.5691 21.2458 53.5898
lradius 38.0152
lwrist -6.57652
lhand -16.9033 -28.858
lfingers 7.12502
lthumb 9.32866 0.915577
rfemur -23.6678 5.87295 21.733
rtibia 57.1198
rfoot -11.8905 -0.304353
rtoes -32.9957
lfemur 7.13995 -19.3928 -31.6807
ltibia 22.3826
lfoot -18.792 10.2671
ltoes -29.429
3209
root 8.96833 15.5728 -17.8483 358.472 -8.66054 -2.0813
lowerback 6.04837 1.78717 -7.28073
upperback -3.0097 1.4197 -5.01939
thorax -6.63672 0.883755 -1.36465
lowerneck -5.44985 1.72533 -1.80957
upperneck 39.4661 3.27656 -0.64689
head 14.4967 0.974963 0.46655
rclavicle -1.80894e-014 1.59028e-014
rhumerus -44.2039 -20.4038 -48.6582
rradius 38.0865
rwrist 13.6553
rhand 2.68124 -46.2504
rfingers 7.12502
rthumb 28.1559 -434.156
lclavicle -1.80894e-014 1.59028e-014
lhumerus -37.8687 21.2775 53.7136
lradius 38.0579
lwrist -6.26307
lhand -17.0677 -28.2662
lfingers 7.12502
lthumb 9.17005 1.51446
rfemur -23.938 5.978 21.8876
rtibia 56.3284
rfoot -12.4072 -1.21014
rtoes -33.6139
lfemur 7.14283 -19.283 -31.7688
ltibia 22.3867
lfoot -18.5916 10.0692
ltoes -30.6041
3210
root 8.97029 15.5702 -17.8226 358.514 -8.54863 -1.98263
lowerback 5.98997 1.71691 -7.4017
upperback -2.92214 1.32595 -5.07337
thorax -6.50905 0.837928 -1.3377
lowerneck -5.45565 1.81093 -1.70487
upperneck 39.3877 3.38454 -0.658356
head 14.4611 1.03684 0.456835
rclavicle -2.8625e-014 1.27222e-014
rhumerus -44.3462 -20.5245 -48.1501
rradius 38.0975
rwrist 13.213
rhand 2.23363 -46.3351
rfingers 7.12502
rthumb 27.728 -434.311
lclavicle -2.8625e-014 1.27222e-014
lhumerus -37.2171 21.2039 53.838
lradius 38.1413
lwrist -5.83484
lhand -16.8004 -27.9736
lfingers 7.12502
lthumb 9.42796 1.79548
rfemur -24.1729 6.08277 22.0938
rtibia 55.4909
rfoot -12.5982 -1.91245
rtoes -32.5503
lfemur 7.1701 -19.1168 -31.8131
ltibia 22.341
lfoot -18.3678 9.90005
ltoes -31.9032
3211
root 8.97143 15.5691 -17.7914 358.536 -8.47456 -1.83655
lowerback 5.99591 1.65443 -7.59453
upperback -2.91155 1.22184 -5.13406
thorax -6.50264 0.792964 -1.28281
lowerneck -5.68374 1.91654 -1.51969
upperneck 39.5253 3.49414 -0.596184
head 14.5808 1.11415 0.468242
rclavicle -2.38542e-015 0
rhumerus -44.6016 -20.376 -47.6939
rradius 38.2337
rwrist 12.8535
rhand 1.79632 -47.0755
rfingers 7.12502
rthumb 27.3098 -435.117
lclavicle -2.38542e-015 0
lhumerus -36.7951 21.0445 53.9288
lradius 38.3285
lwrist -5.51633
lhand -16.6596 -27.3965
lfingers 7.12502
lthumb 9.56376 2.36649
rfemur -24.3792 6.23772 22.2604
rtibia 54.601
rfoot -12.5881 -2.49403
rtoes -30.8349
lfemur 7.21216 -18.9588 -31.9382
ltibia 22.3254
lfoot -18.3353 9.78383
ltoes -32.9567
3212
root 8.97244 15.568 -17.7574 358.557 -8.43211 -1.71397
lowerback 5.98111 1.60275 -7.78901
upperback -2.89491 1.13627 -5.17461
thorax -6.47842 0.757197 -1.20708
lowerneck -5.57525 1.91103 -1.75234
upperneck 39.4601 3.44046 -0.370994
head 14.5129 1.08651 0.593359
rclavicle -2.48481e-014 -9.54166e-015
rhumerus -44.8479 -20.3499 -47.1272
rradius 38.3309
rwrist 13.0542
rhand 1.83844 -47.5736
rfingers 7.12502
rthumb 27.3501 -435.609
lclavicle -2.48481e-014 -9.54166e-015
lhumerus -36.3808 20.9665 54.075
lradius 38.4684
lwrist -5.28671
lhand -16.9669 -26.8117
lfingers 7.12502
lthumb 9.26725 2.96461
rfemur -24.5338 6.3957 22.4533
rtibia 53.6508
rfoot -12.5446 -3.067
rtoes -29.7238
lfemur 7.26744 -18.8137 -32.077
ltibia 22.3604
lfoot -18.3877 9.69591
ltoes -33.7316
3213
root 8.97348 15.5634 -17.723 358.599 -8.42823 -1.74043
lowerback 5.94839 1.57397 -7.88561
upperback -2.90035 1.09441 -5.14875
thorax -6.46697 0.741142 -1.12065
lowerneck -5.3473 1.92861 -1.92943
upperneck 39.3524 3.43063 -0.213282
head 14.4006 1.07955 0.683813
rclavicle -2.18663e-015 3.49861e-014
rhumerus -45.1846 -20.3022 -46.4155
rradius 38.3407
rwrist 13.1704
rhand 2.23844 -47.1661
rfingers 7.12502
rthumb 27.7326 -435.141
lclavicle -2.18663e-015 3.49861e-014
lhumerus -35.9256 21.0817 54.1645
lradius 38.3716
lwrist -5.41869
lhand -17.2955 -26.488
lfingers 7.12502
lthumb 8.95018 3.3022
rfemur -24.6417 6.57528 22.8367
rtibia 52.6367
rfoot -12.7451 -3.69229
rtoes -29.3635
lfemur 7.3503 -18.6727 -32.0555
ltibia 22.3946
lfoot -18.565 9.47856
ltoes -33.1573
